# xmcd
#
# Track frame offsets: 
#        150
#        14533
#        27580
#        41538
#        54443
#        66293
#        78849
#        91571
#        104499
#        118349
#        130271
#        144773
#
# Disc length: 2109 seconds
#
# Revision: 4
# Processed by: cddbd v1.5.2PL0 Copyright (c) Steve Scherf et al.
# Submitted via: ExactAudioCopy v1.3
#
DISCID=9b083b0c
DTITLE=Stevie Wonder - The Best Of Stevie Wonder: 20th Century Masters
DTITLE=The Millennium Collection
DYEAR=2005
DGENRE=R&B
TTITLE0=Fingertips Part 2
TTITLE1=Uptight (Everything's Alright)
TTITLE2=Blowin' In The Wind
TTITLE3=A Place In The Sun
TTITLE4=I Was Made To Love Her
TTITLE5=Shoo-Be-Doo-Be-Doo-Da-Day
TTITLE6=For Once In My Life
TTITLE7=My Cherie Amour
TTITLE8=Yester-Me, Yester-You, Yesterday
TTITLE9=Signed, Sealed, Delivered I'm Yours
TTITLE10=Heaven Help Us All
TTITLE11=If You Really Love Me
EXTD=
EXTT0=
EXTT1=
EXTT2=
EXTT3=
EXTT4=
EXTT5=
EXTT6=
EXTT7=
EXTT8=
EXTT9=
EXTT10=
EXTT11=
PLAYORDER=
